<svg width="136" height="92" viewBox="0 0 136 92" fill="none" xmlns="http://www.w3.org/2000/svg">
<g clip-path="url(#clip0_170_2537)">
<path d="M53.063 79.6263C51.6579 79.6263 50.2842 79.2029 49.1158 78.4099C47.9473 77.6168 47.0366 76.4895 46.4989 75.1706C45.961 73.8518 45.8204 72.4004 46.0945 71.0003C46.3686 69.6003 47.0454 68.3141 48.039 67.3047C49.0327 66.2952 50.2987 65.6079 51.6769 65.3294C53.0552 65.0509 54.4838 65.1938 55.7821 65.7401C57.0803 66.2863 58.19 67.2115 58.9708 68.3985C59.7514 69.5854 60.1681 70.981 60.1681 72.4085C60.1681 74.3228 59.4195 76.1586 58.0872 77.5122C56.7547 78.8658 54.9474 79.6263 53.063 79.6263ZM53.063 68.0778C52.2199 68.0778 51.3958 68.3318 50.6947 68.8076C49.9936 69.2835 49.4472 69.9599 49.1245 70.7512C48.8018 71.5425 48.7175 72.4132 48.882 73.2534C49.0464 74.0935 49.4525 74.865 50.0486 75.4707C50.6448 76.0764 51.4045 76.4888 52.2314 76.656C53.0583 76.823 53.9155 76.7373 54.6944 76.4096C55.4734 76.0817 56.1393 75.5267 56.6077 74.8145C57.0761 74.1023 57.3261 73.265 57.3261 72.4085C57.3261 71.2599 56.877 70.1584 56.0775 69.3462C55.2781 68.534 54.1938 68.0778 53.063 68.0778Z" fill="#00ADEE"/>
<path d="M81.4835 79.6263C80.0782 79.6263 78.7045 79.2029 77.5361 78.4099C76.3677 77.6168 75.4571 76.4895 74.9192 75.1706C74.3815 73.8518 74.2408 72.4004 74.515 71.0003C74.7891 69.6003 75.4658 68.3141 76.4595 67.3047C77.4532 66.2952 78.7191 65.6079 80.0974 65.3294C81.4757 65.0509 82.9043 65.1938 84.2025 65.7401C85.5008 66.2863 86.6104 67.2115 87.3911 68.3985C88.1719 69.5854 88.5886 70.981 88.5886 72.4085C88.5886 74.3228 87.84 76.1586 86.5075 77.5122C85.175 78.8658 83.3679 79.6263 81.4835 79.6263ZM81.4835 68.0778C80.6404 68.0778 79.8161 68.3318 79.1151 68.8076C78.4141 69.2835 77.8677 69.9599 77.545 70.7512C77.2223 71.5425 77.1379 72.4132 77.3024 73.2534C77.4669 74.0935 77.8729 74.865 78.4691 75.4707C79.0653 76.0764 79.8249 76.4888 80.6518 76.656C81.4788 76.823 82.336 76.7373 83.1149 76.4096C83.8939 76.0817 84.5597 75.5267 85.028 74.8145C85.4966 74.1023 85.7466 73.265 85.7466 72.4085C85.7466 71.2599 85.2974 70.1584 84.4979 69.3462C83.6984 68.534 82.6141 68.0778 81.4835 68.0778Z" fill="#00ADEE"/>
<path d="M104.219 76.7354H101.377V79.6225H104.219V76.7354Z" fill="#00ADEE"/>
<path d="M98.5349 76.7354H95.6929V79.6225H98.5349V76.7354Z" fill="#00ADEE"/>
<path d="M92.8513 76.7354H40.2739V79.6225H92.8513V76.7354Z" fill="#00ADEE"/>
<path d="M37.4318 76.7354H34.5898V79.6225H37.4318V76.7354Z" fill="#00ADEE"/>
<path d="M81.4827 68.0782H50.2206C48.9309 68.0775 47.6797 67.6313 46.6726 66.8128C45.6655 65.9944 44.9624 64.8524 44.6786 63.5742L36.0105 24.4536C35.9382 24.1279 35.7572 23.8378 35.4981 23.6324C35.239 23.4272 34.9179 23.3194 34.5894 23.3276H27.4844V20.4404H34.5894C35.5579 20.4393 36.4979 20.7732 37.2547 21.3871C38.0115 22.0011 38.5399 22.8586 38.753 23.8184L47.4496 62.939C47.5915 63.5782 47.943 64.1491 48.4466 64.5584C48.9502 64.9676 49.5757 65.1908 50.2206 65.191H81.4827V68.0782Z" fill="#00ADEE"/>
<path d="M82.9048 60.8576H51.6425V57.9704H82.9048C83.5024 57.971 84.0849 57.7802 84.5696 57.4252C85.0543 57.0701 85.4165 56.5689 85.6048 55.9928L92.8519 33.8773C92.8735 33.7289 92.8735 33.5781 92.8519 33.4298C92.8519 33.047 92.7021 32.6798 92.4356 32.409C92.1691 32.1384 91.8078 31.9862 91.4309 31.9862H38.8535V29.0991H91.4309C92.1055 29.0989 92.7703 29.2612 93.371 29.5728C93.9719 29.8844 94.4911 30.3364 94.8865 30.8916C95.2819 31.4468 95.5419 32.0894 95.6452 32.7665C95.7484 33.4436 95.6921 34.136 95.4808 34.7867L88.3047 56.8878C87.9307 58.0428 87.2073 59.0483 86.2377 59.7612C85.2681 60.474 84.1018 60.8577 82.9048 60.8576Z" fill="#00ADEE"/>
<path d="M93.0219 36.3213H70.1152V39.2085H93.0219V36.3213Z" fill="#00ADEE"/>
<path d="M67.2731 36.3213H64.4312V39.2085H67.2731V36.3213Z" fill="#00ADEE"/>
<path d="M61.5745 36.3213H58.7466V39.2085H61.5745V36.3213Z" fill="#00ADEE"/>
<path d="M74.5237 18.7783L57.981 29.3408L59.4933 31.7852L76.036 21.2227L74.5237 18.7783Z" fill="#00ADEE"/>
<path d="M64.5722 21.6619L62.208 23.2642L64.5661 26.8547L66.9302 25.2523L64.5722 21.6619Z" fill="#00ADEE"/>
<path d="M50.2205 30.5464H47.3784V27.6593C47.3829 26.6225 47.6318 25.6019 48.1038 24.6827C48.576 23.7635 49.258 22.9726 50.0925 22.3758L65.8516 11.2604C66.7705 10.6574 67.8412 10.3366 68.9352 10.3365C69.4143 10.3432 69.8913 10.4062 70.3562 10.5241C72.7151 11.1016 78.6407 12.9926 79.3654 13.2236C81.4685 11.8955 83.0032 10.885 84.7652 9.73018L86.1863 8.76299C87.4049 7.92733 88.8371 7.4708 90.3072 7.44934C91.2858 7.41517 92.2589 7.61286 93.1492 8.02678C95.9051 9.58225 98.3221 11.689 100.254 14.2197C100.939 15.1162 101.314 16.2173 101.32 17.3523C101.246 18.7643 100.665 20.0998 99.6859 21.1055C98.1796 22.5491 95.4228 25.0032 93.4618 26.7498L91.6145 24.5701C93.5897 22.8377 96.247 20.4847 97.6965 19.0412C98.1338 18.5816 98.4087 17.9876 98.478 17.3523C98.4795 16.8699 98.3191 16.4015 98.0233 16.0241C96.3759 13.8309 94.3128 11.9952 91.9556 10.6252C91.2672 10.378 90.5309 10.3001 89.8071 10.398C89.0834 10.4959 88.3928 10.7667 87.792 11.1882L86.371 12.1409C84.5521 13.3391 82.9748 14.3784 80.7864 15.7643C80.1427 16.1182 79.3893 16.2061 78.6833 16.0097C78.5696 16.0097 72.1182 13.9165 69.7594 13.3391C69.5002 13.266 69.2326 13.2272 68.9636 13.2236C68.4277 13.2266 67.9025 13.3762 67.4432 13.6567L51.6415 24.7722C51.2042 25.1121 50.8491 25.5487 50.6028 26.0491C50.3566 26.5493 50.2259 27.1 50.2205 27.6593V30.5464Z" fill="#00ADEE"/>
<path d="M90.0102 20.4407C89.5927 20.4413 89.1802 20.3486 88.802 20.169C88.4237 19.9893 88.0892 19.7272 87.8218 19.4013L86.5288 17.9577L88.5893 16.0089L90.0102 17.4525C91.8007 16.0089 96.149 11.6782 96.1917 11.6782L98.1668 13.757C97.9679 13.9447 93.4633 18.3186 91.6729 19.791C91.2132 20.203 90.6232 20.4335 90.0102 20.4407Z" fill="#00ADEE"/>
<path d="M94.727 32.3199L92.3681 30.7031C92.6161 30.3283 92.774 29.8998 92.8292 29.4518C92.8845 29.0037 92.8356 28.5489 92.6863 28.1236C92.5371 27.6983 92.2919 27.3145 91.9702 27.0029C91.6485 26.6914 91.2593 26.4609 90.8341 26.3299C90.4087 26.1988 89.9592 26.171 89.5213 26.2484C89.0835 26.326 88.6697 26.5067 88.3131 26.7762C87.9565 27.0456 87.667 27.3963 87.468 27.8C87.269 28.2037 87.166 28.6492 87.1673 29.1007C87.1692 29.4306 87.2269 29.7578 87.3378 30.0679L84.652 31.0207C84.4369 30.4041 84.3263 29.7549 84.3252 29.1007C84.3252 27.5693 84.9241 26.1005 85.9901 25.0177C87.0559 23.9347 88.5017 23.3264 90.0092 23.3264C91.5167 23.3264 92.9625 23.9347 94.0285 25.0177C95.0945 26.1005 95.6934 27.5693 95.6934 29.1007C95.6991 30.2483 95.3623 31.3708 94.727 32.3199Z" fill="#00ADEE"/>
<path d="M34.59 0.22998H31.748V6.00425H34.59V0.22998Z" fill="#00ADEE"/>
<path d="M34.59 11.7744H31.748V17.5488H34.59V11.7744Z" fill="#00ADEE"/>
<path d="M41.6953 7.44556H36.0112V10.3327H41.6953V7.44556Z" fill="#00ADEE"/>
<path d="M30.3266 7.44556H24.6426V10.3327H30.3266V7.44556Z" fill="#00ADEE"/>
<path d="M102.798 53.6455H99.9556V59.4199H102.798V53.6455Z" fill="#00ADEE"/>
<path d="M102.799 65.1904H99.9565V70.9648H102.799V65.1904Z" fill="#00ADEE"/>
<path d="M109.903 60.8613H104.219V63.7484H109.903V60.8613Z" fill="#00ADEE"/>
<path d="M98.5357 60.8613H92.8516V63.7484H98.5357V60.8613Z" fill="#00ADEE"/>
<path opacity="0.15" d="M67.7357 91.37C104.666 91.37 134.605 86.4912 134.605 80.4729C134.605 74.4545 104.666 69.5757 67.7357 69.5757C30.8049 69.5757 0.866699 74.4545 0.866699 80.4729C0.866699 86.4912 30.8049 91.37 67.7357 91.37Z" fill="#00ADEE"/>
</g>
<defs>
<clipPath id="clip0_170_2537">
<rect width="134.979" height="91.14" fill="white" transform="translate(0.17041 0.22998)"/>
</clipPath>
</defs>
</svg>
