<svg width="136" height="94" viewBox="0 0 136 94" fill="none" xmlns="http://www.w3.org/2000/svg">
<g clip-path="url(#clip0_170_2568)">
<path d="M73.432 1.91772H70.5054V4.89088H73.432V1.91772Z" fill="#06C5AC"/>
<path d="M44.1649 1.91772H41.2383V4.89088H44.1649V1.91772Z" fill="#06C5AC"/>
<path d="M50.0181 1.91772H47.0913V4.89088H50.0181V1.91772Z" fill="#06C5AC"/>
<path d="M55.8721 1.91772H52.9453V4.89088H55.8721V1.91772Z" fill="#06C5AC"/>
<path d="M61.7251 1.91772H58.7983V4.89088H61.7251V1.91772Z" fill="#06C5AC"/>
<path d="M67.5785 1.91772H64.6519V4.89088H67.5785V1.91772Z" fill="#06C5AC"/>
<path d="M38.3114 7.86133H35.3848V10.8345H38.3114V7.86133Z" fill="#06C5AC"/>
<path d="M38.3114 13.8127H35.3848V16.7859H38.3114V13.8127Z" fill="#06C5AC"/>
<path d="M38.3114 19.7566H35.3848V22.7297H38.3114V19.7566Z" fill="#06C5AC"/>
<path d="M38.3114 25.7002H35.3848V28.6733H38.3114V25.7002Z" fill="#06C5AC"/>
<path d="M105.03 32.6582L102.396 41.1317L105.177 42.0237L107.811 33.5502L105.03 32.6582Z" fill="#06C5AC"/>
<path d="M110.016 0.429932H107.089V6.37625H110.016V0.429932Z" fill="#06C5AC"/>
<path d="M110.016 12.325H107.089V18.2713H110.016V12.325Z" fill="#06C5AC"/>
<path d="M117.333 7.86133H111.479V10.8345H117.333V7.86133Z" fill="#06C5AC"/>
<path d="M105.626 7.86133H99.7725V10.8345H105.626V7.86133Z" fill="#06C5AC"/>
<path d="M92.4556 82.1904H45.6283C44.464 82.1904 43.3474 81.7205 42.5241 80.8841C41.7008 80.0477 41.2383 78.9135 41.2383 77.7306V12.3211C41.2383 11.1383 41.7008 10.0039 42.5241 9.16758C43.3474 8.33122 44.464 7.86133 45.6283 7.86133H92.4556C93.6199 7.86133 94.7366 8.33122 95.5599 9.16758C96.3832 10.0039 96.8456 11.1383 96.8456 12.3211V26.8599H93.9189V12.3211C93.9189 11.9268 93.7648 11.5487 93.4903 11.2699C93.2159 10.9911 92.8437 10.8345 92.4556 10.8345H45.6283C45.2402 10.8345 44.868 10.9911 44.5936 11.2699C44.3191 11.5487 44.1649 11.9268 44.1649 12.3211V77.7306C44.1649 78.1249 44.3191 78.503 44.5936 78.7818C44.868 79.0605 45.2402 79.2172 45.6283 79.2172H92.4556C92.8437 79.2172 93.2159 79.0605 93.4903 78.7818C93.7648 78.503 93.9189 78.1249 93.9189 77.7306V47.999H96.8456V77.7306C96.8456 78.9135 96.3832 80.0477 95.5599 80.8841C94.7366 81.7205 93.6199 82.1904 92.4556 82.1904Z" fill="#06C5AC"/>
<path d="M96.8457 42.0588H93.9189V45.032H96.8457V42.0588Z" fill="#06C5AC"/>
<path d="M38.3114 31.6516H35.3848V34.6247H38.3114V31.6516Z" fill="#06C5AC"/>
<path d="M38.3114 37.5952H35.3848V40.5683H38.3114V37.5952Z" fill="#06C5AC"/>
<path d="M38.3114 43.5388H35.3848V46.5119H38.3114V43.5388Z" fill="#06C5AC"/>
<path d="M38.3114 49.49H35.3848V52.4632H38.3114V49.49Z" fill="#06C5AC"/>
<path d="M38.3114 55.4338H35.3848V58.4071H38.3114V55.4338Z" fill="#06C5AC"/>
<path d="M38.3114 1.91772H35.3848V4.89088H38.3114V1.91772Z" fill="#06C5AC"/>
<path d="M67.5783 15.293H48.5547V18.2661H67.5783V15.293Z" fill="#06C5AC"/>
<path d="M73.432 15.293H70.5054V18.2661H73.432V15.293Z" fill="#06C5AC"/>
<path d="M79.2855 15.293H76.3589V18.2661H79.2855V15.293Z" fill="#06C5AC"/>
<path d="M64.652 22.7244H48.5552V25.6976H64.652V22.7244Z" fill="#06C5AC"/>
<path d="M110.016 42.0563C109.431 42.0569 108.848 41.9666 108.29 41.7887L77.3104 32.1111L70.9741 23.3253L80.8078 20.7537L111.743 30.4313C113.08 30.8529 114.223 31.7471 114.966 32.9516C115.71 34.1562 116.004 35.5914 115.795 36.9973C115.586 38.403 114.888 39.6862 113.828 40.6143C112.768 41.5424 111.416 42.054 110.016 42.0563ZM79.0957 29.5541L109.153 38.9493C109.433 39.0376 109.724 39.0826 110.016 39.0831C110.716 39.082 111.392 38.8263 111.922 38.3621C112.452 37.8981 112.801 37.2564 112.906 36.5536C113.01 35.8507 112.863 35.133 112.491 34.5308C112.12 33.9285 111.548 33.4814 110.88 33.2706L80.7493 23.8457L75.8909 25.1093L79.0957 29.5541Z" fill="#06C5AC"/>
<path d="M83.6757 50.9702H54.4087V53.9434H83.6757V50.9702Z" fill="#06C5AC"/>
<path d="M86.601 74.7567H80.7475C79.9714 74.7567 79.2269 74.4436 78.6781 73.8859C78.1292 73.3284 77.8208 72.5722 77.8208 71.7836V67.3239H80.7475V71.7836H86.601V59.6382C86.5112 59.1716 86.3046 58.7364 86.0009 58.3746C84.5375 56.2786 82.4889 53.3203 82.4889 53.3203L82.3279 53.0972L82.2547 52.8148C82.2547 52.8148 80.7914 46.6902 80.1036 44.2521C79.9829 44.0169 79.7959 43.8234 79.5666 43.6963C79.3373 43.5693 79.076 43.5144 78.8159 43.5385H59.2655C59.0042 43.5178 58.7424 43.5758 58.5134 43.7053C58.2843 43.8349 58.098 44.0302 57.9778 44.267C57.3193 46.5712 55.8413 52.7405 55.8266 52.8148V53.0825L55.651 53.3203C55.651 53.3203 53.5731 56.2935 52.139 58.3746C51.8302 58.733 51.6227 59.1697 51.5391 59.6382V71.7836H57.3924C57.3924 71.7836 57.3924 71.6944 57.3924 71.5309V67.3239H60.3192V71.5309C60.3537 71.942 60.3036 72.356 60.172 72.7464C60.0405 73.1368 59.8304 73.4951 59.555 73.7986C59.2798 74.102 58.9454 74.3439 58.573 74.5088C58.2007 74.6739 57.7987 74.7583 57.3924 74.7567H51.5391C50.7628 74.7567 50.0184 74.4436 49.4695 73.8859C48.9207 73.3284 48.6123 72.5722 48.6123 71.7836V59.6382C48.6655 58.5529 49.0547 57.5124 49.7245 56.665C50.9243 54.9109 52.6511 52.5621 53.1048 51.8189C53.4121 50.5553 54.5682 45.5306 55.2267 43.4196C55.5174 42.5589 56.0725 41.8156 56.81 41.2992C57.5476 40.7828 58.4288 40.5204 59.324 40.5505H78.8745C79.7725 40.5166 80.6572 40.7792 81.396 41.2992C82.1347 41.8192 82.6876 42.5684 82.9718 43.4345C83.5864 45.6495 84.7864 50.5701 85.079 51.804C85.6058 52.5472 87.274 54.9109 88.474 56.6799C89.1455 57.5262 89.535 58.5674 89.5862 59.6531V71.7836C89.5863 72.1791 89.5087 72.5707 89.358 72.9352C89.2072 73.2999 88.9864 73.6304 88.7084 73.9073C88.4303 74.1842 88.1007 74.4019 87.7388 74.5478C87.3771 74.6936 86.9902 74.7647 86.601 74.7567Z" fill="#06C5AC"/>
<path d="M88.0657 65.8411H50.0186V68.8142H88.0657V65.8411Z" fill="#06C5AC"/>
<path d="M55.8719 59.8975H50.0186V62.8706H55.8719V59.8975Z" fill="#06C5AC"/>
<path d="M88.0658 59.8975H82.2124V62.8706H88.0658V59.8975Z" fill="#06C5AC"/>
<path d="M71.9687 59.8975H66.1152V62.8706H71.9687V59.8975Z" fill="#06C5AC"/>
<path opacity="0.15" d="M67.7908 93.16C104.962 93.16 135.095 88.2494 135.095 82.1919C135.095 76.1344 104.962 71.2239 67.7908 71.2239C30.6199 71.2239 0.486816 76.1344 0.486816 82.1919C0.486816 88.2494 30.6199 93.16 67.7908 93.16Z" fill="#06AEAA"/>
</g>
<defs>
<clipPath id="clip0_170_2568">
<rect width="134.987" height="92.73" fill="white" transform="translate(0.486816 0.429932)"/>
</clipPath>
</defs>
</svg>
