<svg width="136" height="90" viewBox="0 0 136 90" fill="none" xmlns="http://www.w3.org/2000/svg">
<g clip-path="url(#clip0_170_2609)">
<path d="M45.4785 78.7743C43.3733 78.7743 41.3152 78.1402 39.5647 76.952C37.8143 75.7638 36.4499 74.0749 35.6442 72.0991C34.8386 70.1231 34.6278 67.9489 35.0385 65.8513C35.4492 63.7538 36.4631 61.8269 37.9517 60.3147C39.4404 58.8023 41.3371 57.7725 43.4018 57.3553C45.4667 56.938 47.6069 57.1521 49.5519 57.9706C51.4969 58.789 53.1595 60.1751 54.329 61.9533C55.4987 63.7315 56.1229 65.8222 56.1229 67.9609C56.1229 70.8288 55.0015 73.5792 53.0053 75.6071C51.0091 77.6352 48.3016 78.7743 45.4785 78.7743ZM45.4785 60.237C43.9747 60.237 42.5047 60.69 41.2544 61.5387C40.004 62.3875 39.0296 63.5937 38.4541 65.0051C37.8786 66.4164 37.7281 67.9695 38.0214 69.4677C38.3147 70.966 39.0389 72.3424 40.1023 73.4226C41.1656 74.5028 42.5203 75.2384 43.9952 75.5364C45.47 75.8345 46.9988 75.6814 48.3881 75.0968C49.7774 74.5123 50.9649 73.5223 51.8003 72.2521C52.6358 70.9819 53.0817 69.4886 53.0817 67.9609C53.0817 65.9125 52.2806 63.9479 50.8548 62.4994C49.4289 61.0508 47.495 60.237 45.4785 60.237Z" fill="#FF6400"/>
<path d="M91.0976 78.7743C88.9923 78.7743 86.9343 78.1402 85.1839 76.952C83.4334 75.7638 82.069 74.0749 81.2634 72.0991C80.4577 70.1231 80.2469 67.9489 80.6577 65.8513C81.0684 63.7538 82.0821 61.8269 83.5708 60.3147C85.0595 58.8023 86.9561 57.7725 89.0209 57.3553C91.0858 56.938 93.226 57.1521 95.1711 57.9706C97.1161 58.789 98.7785 60.1751 99.9482 61.9533C101.118 63.7315 101.742 65.8222 101.742 67.9609C101.742 70.8288 100.621 73.5792 98.6244 75.6071C96.6282 77.6352 93.9206 78.7743 91.0976 78.7743ZM91.0976 60.237C89.5938 60.237 88.1239 60.69 86.8735 61.5387C85.6232 62.3875 84.6486 63.5937 84.0732 65.0051C83.4977 66.4164 83.3471 67.9695 83.6404 69.4677C83.9339 70.966 84.658 72.3424 85.7213 73.4226C86.7846 74.5028 88.1394 75.2384 89.6143 75.5364C91.0892 75.8345 92.6179 75.6814 94.0072 75.0968C95.3965 74.5123 96.584 73.5223 97.4194 72.2521C98.2549 70.9819 98.7008 69.4886 98.7008 67.9609C98.7008 65.9125 97.8998 63.9479 96.4738 62.4994C95.048 61.0508 93.1141 60.237 91.0976 60.237Z" fill="#FF6400"/>
<path d="M46.9993 66.4197H43.958V69.5093H46.9993V66.4197Z" fill="#FF6400"/>
<path d="M92.6189 66.4197H89.5776V69.5093H92.6189V66.4197Z" fill="#FF6400"/>
<path d="M106.305 71.0506H100.1V67.9611H106.305C106.918 68.0181 107.536 67.9374 108.115 67.7246C108.694 67.5118 109.219 67.1723 109.655 66.7301C110.09 66.2878 110.424 65.7537 110.634 65.1655C110.843 64.5774 110.923 63.9497 110.867 63.3268C110.867 55.7882 105.955 41.6998 94.1396 41.6998H85.8064L75.466 28.5693C74.8966 27.8467 74.1746 27.2633 73.3535 26.8622C72.5322 26.4612 71.6328 26.2527 70.7216 26.2521H45.6767C44.8328 26.2523 43.9981 26.4311 43.2258 26.7768C42.4535 27.1226 41.7605 27.6278 41.1908 28.2603C37.133 32.6399 33.4973 37.4041 30.3334 42.4877C29.3157 44.2077 28.7892 46.1814 28.8127 48.1879V63.3268C28.8127 64.5558 29.2934 65.7346 30.149 66.6037C31.0045 67.4728 32.1648 67.9611 33.3747 67.9611H36.5376V71.0506H33.3139C31.2974 71.0506 29.3635 70.2369 27.9376 68.7884C26.5117 67.3399 25.7107 65.3753 25.7107 63.3268V48.1879C25.6966 45.6008 26.403 43.0625 27.7483 40.8657C31.0122 35.6106 34.7651 30.6859 38.9555 26.1594C39.815 25.2202 40.8549 24.4698 42.0108 23.9543C43.1667 23.4389 44.4143 23.1695 45.6767 23.1626H70.7216C72.0884 23.1634 73.4375 23.4762 74.6694 24.0778C75.9011 24.6794 76.9841 25.5545 77.8383 26.6383L87.2663 38.6103H94.1396C107.035 38.6103 113.908 52.9613 113.908 63.3268C113.968 64.357 113.812 65.3883 113.451 66.3529C113.09 67.3175 112.532 68.1936 111.814 68.9232C111.095 69.6529 110.233 70.2198 109.283 70.5865C108.334 70.9532 107.319 71.1113 106.305 71.0506Z" fill="#FF6400"/>
<path d="M82.0961 67.9597H72.8506V71.0492H82.0961V67.9597Z" fill="#FF6400"/>
<path d="M60.6847 67.9597H54.4805V71.0492H60.6847V67.9597Z" fill="#FF6400"/>
<path d="M68.2881 75.6841H28.7515V78.7737H68.2881V75.6841Z" fill="#FF6400"/>
<path d="M107.825 75.6841H75.8916V78.7737H107.825V75.6841Z" fill="#FF6400"/>
<path d="M71.3306 72.598H62.2067C61.7832 72.605 61.3629 72.522 60.9727 72.3545C60.5825 72.1869 60.2311 71.9383 59.941 71.6248C59.6641 71.3309 59.4517 70.9806 59.318 70.5971C59.1844 70.2137 59.1323 69.8057 59.1654 69.4003L60.0475 57.2274L63.0888 57.4591L62.2219 69.6166L71.3458 69.5084L68.411 24.818L71.4523 24.6172L74.3871 69.4157C74.4202 69.8211 74.3682 70.2291 74.2346 70.6125C74.1008 70.996 73.8885 71.3463 73.6116 71.6402C73.3184 71.9529 72.9639 72.1998 72.5711 72.3647C72.1782 72.5297 71.7555 72.6091 71.3306 72.598Z" fill="#FF6400"/>
<path d="M60.435 50.9893L60.2573 53.826L63.2925 54.0222L63.4701 51.1855L60.435 50.9893Z" fill="#FF6400"/>
<path d="M62.049 24.5789L60.5938 47.5021L63.6287 47.701L65.084 24.7777L62.049 24.5789Z" fill="#FF6400"/>
<path d="M62.5406 43.2444H43.3501C42.3002 43.2403 41.2947 42.8138 40.5536 42.0582C39.8126 41.3025 39.3965 40.2792 39.3965 39.2126C39.394 38.5608 39.5508 37.9185 39.8527 37.3434L43.2285 30.8245L45.9201 32.2611L42.5442 38.7954C42.4721 38.922 42.4352 39.0663 42.4378 39.2126C42.4358 39.3356 42.4579 39.4578 42.5028 39.572C42.5477 39.6863 42.6146 39.7902 42.6996 39.878C42.7845 39.9657 42.8857 40.0353 42.9975 40.0829C43.1091 40.1304 43.2291 40.1549 43.3501 40.1549H62.5406V43.2444Z" fill="#FF6400"/>
<path d="M78.9319 40.1589H70.9941V43.2486H78.9319V40.1589Z" fill="#FF6400"/>
<path d="M33.3134 58.6953H27.231V61.7849H33.3134V58.6953Z" fill="#FF6400"/>
<path d="M111.93 57.1475H103.263V60.237H111.93V57.1475Z" fill="#FF6400"/>
<path d="M110.076 54.056H96.2992C95.8979 54.0563 95.5005 53.9759 95.1299 53.8195C94.7594 53.6631 94.4228 53.4337 94.1399 53.1446L91.9807 50.9665C91.4348 50.3679 91.1213 49.5884 91.0986 48.7728C91.1027 47.717 91.5173 46.7057 92.2521 45.9591C92.987 45.2126 93.9827 44.7914 95.022 44.7874H106.427V47.8769H95.022C94.9062 47.8769 94.7914 47.9 94.6844 47.945C94.5774 47.9901 94.4801 48.0561 94.3982 48.1393C94.3163 48.2225 94.2514 48.3213 94.2071 48.4299C94.1627 48.5387 94.1399 48.6552 94.1399 48.7728L96.2992 50.9665H110.076V54.056Z" fill="#FF6400"/>
<path d="M72.5005 25.2303L69.6417 24.1953C69.7513 23.8616 69.8078 23.5122 69.8089 23.1603C69.8089 22.3409 69.4885 21.5551 68.9182 20.9757C68.3477 20.3963 67.5742 20.0707 66.7676 20.0707C65.961 20.0707 65.1876 20.3963 64.6172 20.9757C64.0468 21.5551 63.7263 22.3409 63.7263 23.1603C63.7276 23.5071 63.7841 23.8515 63.8936 24.1798L61.0348 25.2149C60.7385 24.3661 60.6284 23.4617 60.7124 22.5652C60.7962 21.6686 61.0721 20.8015 61.5203 20.0247C61.9687 19.2478 62.5789 18.5798 63.308 18.0675C64.0371 17.5553 64.8676 17.2112 65.7414 17.0592C66.6152 16.9074 67.5111 16.9513 68.3664 17.188C69.2218 17.4247 70.0158 17.8485 70.693 18.4296C71.3703 19.0108 71.9142 19.7354 72.2868 20.5526C72.6594 21.3697 72.8517 22.2597 72.8502 23.1603C72.849 23.8654 72.7308 24.5652 72.5005 25.2303Z" fill="#FF6400"/>
<path d="M49.1134 25.9459C47.5805 24.7779 46.4484 23.1491 45.8778 21.2908C45.3071 19.4325 45.327 17.4388 45.9345 15.5925C46.5419 13.7463 47.7063 12.1413 49.2622 11.005C50.8181 9.86872 52.6867 9.25896 54.603 9.26222C59.0584 9.26222 63.7268 12.2127 67.9694 17.5731L65.5668 19.4886C62.0541 14.947 58.0548 12.3518 54.603 12.3518C53.3263 12.3518 52.0821 12.7598 51.0464 13.5181C50.0107 14.2765 49.2362 15.3466 48.8326 16.5769C48.4289 17.8072 48.4164 19.1354 48.797 20.3733C49.1777 21.6112 49.9321 22.6961 50.9534 23.4742L49.1134 25.9459Z" fill="#FF6400"/>
<path d="M78.9343 27.7995H75.2848V24.71H78.9343C80.5475 24.71 82.0946 24.059 83.2353 22.9001C84.376 21.7413 85.0169 20.1697 85.0169 18.5309C85.0169 16.8921 84.376 15.3204 83.2353 14.1616C82.0946 13.0028 80.5475 12.3518 78.9343 12.3518C75.4825 12.3518 71.4832 14.947 67.9704 19.4886L65.5679 17.5731C69.8105 12.2127 74.4789 9.26221 78.9343 9.26221C81.3541 9.26221 83.6748 10.2387 85.3857 11.9769C87.0968 13.7151 88.0582 16.0727 88.0582 18.5309C88.0582 20.9891 87.0968 23.3466 85.3857 25.0848C83.6748 26.823 81.3541 27.7995 78.9343 27.7995Z" fill="#FF6400"/>
<path d="M103.263 -0.0100098H100.222V6.1691H103.263V-0.0100098Z" fill="#FF6400"/>
<path d="M103.263 12.3425H100.222V18.5216H103.263V12.3425Z" fill="#FF6400"/>
<path d="M110.866 7.71411H104.784V10.8037H110.866V7.71411Z" fill="#FF6400"/>
<path d="M98.7011 7.71411H92.6187V10.8037H98.7011V7.71411Z" fill="#FF6400"/>
<path opacity="0.15" d="M68.0263 89.6C105.144 89.6 135.234 84.6965 135.234 78.6477C135.234 72.5988 105.144 67.6953 68.0263 67.6953C30.9087 67.6953 0.818848 72.5988 0.818848 78.6477C0.818848 84.6965 30.9087 89.6 68.0263 89.6Z" fill="#FF6400"/>
</g>
<defs>
<clipPath id="clip0_170_2609">
<rect width="134.982" height="89.61" fill="white" transform="translate(0.818848 -0.0100098)"/>
</clipPath>
</defs>
</svg>
